PathFileType	4	(X/Y/Z)	31_1_7_p0_0-546_filt_butterworth.trc
DataRate	CameraRate	NumFrames	NumMarkers	Units	OrigDataRate	OrigDataStartFrame	OrigNumFrames
59.0	59.0	7	27	m	59.0	409	546
Frame#	Time	RHip			RKnee			RAnkle			RBigToe			RSmallToe			RHeel			LHip			LKnee			LAnkle			LBigToe			LSmallToe			LHeel			Neck			Head			Nose			RShoulder			RElbow			RWrist			RThumb			RIndex			RPinky			LShoulder			LElbow			LWrist			LThumb			LIndex			LPinky			
		X1	Y1	Z1	X2	Y2	Z2	X3	Y3	Z3	X4	Y4	Z4	X5	Y5	Z5	X6	Y6	Z6	X7	Y7	Z7	X8	Y8	Z8	X9	Y9	Z9	X10	Y10	Z10	X11	Y11	Z11	X12	Y12	Z12	X13	Y13	Z13	X14	Y14	Z14	X15	Y15	Z15	X16	Y16	Z16	X17	Y17	Z17	X18	Y18	Z18	X19	Y19	Z19	X20	Y20	Z20	X21	Y21	Z21	X22	Y22	Z22	X23	Y23	Z23	X24	Y24	Z24	X25	Y25	Z25	X26	Y26	Z26	X27	Y27	Z27	
409	6.932203389830509	0.19543020616397147	0.3941156656039715	0.9333555859303564	0.1736633119600864	-0.027729739380515983	0.929268812939384	0.11506179136427797	-0.4765469273306958	0.9334682913744136	0.06863467896097311	-0.4441168081169003	0.697091364222364	0.14327783055296262	-0.4571754765689358	0.7300794446242269	0.10210956216093495	-0.5565273799767445	0.9978935342181824	-0.03407135812471863	0.4195029749031643	0.9530328438156078	-0.062401395320857665	-0.020542319616250082	0.9386534867618999	-0.08635361086791302	-0.4356792831129316	0.9222351595117608	-0.08797581282274067	-0.45814178795937155	0.753526396207848	-0.14441120737171884	-0.46112264651009	0.7982777292150914	-0.07316016590702405	-0.5096666936361001	0.9699774119119832	0.14212698595935008	1.0160342986974542	0.9067444307400712	0.1447802123838956	1.302786236223894	0.7516719704009834	0.1264558142956532	1.1313428368004395	0.7229340546610997	0.29317240807381206	0.9374702565621108	0.9436257959065064	0.37843275633440854	0.6384782221484187	1.0422582786655008	0.3633673992908919	0.42600037665802376	0.8372664049833942	0.29540358852005005	0.35457950756429146	0.7215547023152067	0.35647763387125014	0.31259759403122755	0.7135255335612982	0.36689461409287405	0.27878429980185154	0.8129264586071078	-0.03476147418220368	0.9508742695374752	0.9252601473615951	-0.1220607811579154	0.6721044420520876	0.9772126561408608	-0.09965656230534777	0.46486033987146735	0.8259450473817878	-0.04577436560496963	0.3977006038105715	0.7280085166839234	-0.06896166249911062	0.3879774791471001	0.6956072930734629	-0.1252272394984244	0.36901731317257846	0.7500720767406382	
410	6.9491525423728815	0.19580591192088131	0.39261165186855557	0.9336295572578228	0.17348780706952419	-0.028382124228238936	0.9289590911596955	0.1148867026030159	-0.47647494127100315	0.934403115115375	0.06821501901400111	-0.44310594824104405	0.6957442614203468	0.14251223234713656	-0.45589690008781203	0.7282664598647297	0.10211080713297128	-0.5556872243789377	0.9977836886974978	-0.03345419498856508	0.41812301824533116	0.9542398639105212	-0.062208856513936275	-0.02101806423001673	0.9386429298693523	-0.08636045729798739	-0.43535696182293776	0.9223230504991988	-0.08907373331280173	-0.4581787328427162	0.7537926306636471	-0.14377818071762827	-0.46168834639163153	0.7981193718642867	-0.07346115814923729	-0.5087244676251609	0.9696682460605093	0.14213934602477468	1.0165389339082007	0.907026321605596	0.1448224132630491	1.3034899674484455	0.7516504762871162	0.12582817118451406	1.1312845221242296	0.7230255633851836	0.2933133187677288	0.9373890772721214	0.9442673404040282	0.3775080784245523	0.6369122509047884	1.0400234313411736	0.3623118139387915	0.4241063607276558	0.8350996206067789	0.29291077884996297	0.35054819743037513	0.7245892934380649	0.35033404325140627	0.30988695036962144	0.7181996415970933	0.36588507789933084	0.2778485966735691	0.8102962033798202	-0.03424907120746401	0.9505117369529055	0.9269272689904493	-0.12116788100297943	0.6712181814453935	0.9793532134550571	-0.09584684862612641	0.4648938683693291	0.8259826139555912	-0.044681802301361026	0.39706545825955586	0.7291466822745627	-0.06220265627398035	0.3842696656319462	0.7034536455329141	-0.12210931169920088	0.36625306907387123	0.7568744975965189	
411	6.966101694915254	0.19618266377571053	0.39104065354096457	0.933926794123389	0.17327822823514624	-0.02927506106998773	0.9287342954265191	0.11465655145855663	-0.47630228038044514	0.9353034987295599	0.06828945414082102	-0.4422605551298896	0.6951790134630708	0.1420662403036604	-0.45517668538421396	0.72722878764303	0.1022219458564331	-0.554822672358902	0.997693354692281	-0.03269222665434327	0.41663193723845926	0.9551442141798718	-0.06200106139507424	-0.021561518427561488	0.9387109355615234	-0.08636184306358216	-0.43508284892162563	0.9224098460183863	-0.08987354502604208	-0.4581191453288764	0.7538895577031569	-0.14340508776325966	-0.4619754355929197	0.7979912694618057	-0.07365530072448502	-0.5075673305333809	0.9689963644888483	0.14204805587830088	1.0172609681568352	0.9069247253816075	0.1446462006114153	1.304131059488346	0.7514614654160757	0.12445663064222937	1.131943208558697	0.723631501987157	0.2934417479290057	0.9377063385403864	0.9440423122028747	0.3773269028382785	0.6356714254591873	1.0381777537846268	0.3611745024431793	0.42165543451202897	0.8328139158405818	0.29062312341140095	0.34720531045374003	0.7254957014871397	0.34345314553606465	0.3065626090108291	0.7222384598109304	0.36510751755359455	0.27612505979423324	0.8084658926536238	-0.03358927864786147	0.9500613424242875	0.9289980597060263	-0.12025056241698945	0.6708558087591834	0.9808377205297607	-0.09200413840358607	0.46444234688404934	0.825553923691873	-0.04374560380306248	0.3966211774478593	0.7298373067362138	-0.05714974113905856	0.38126670901352566	0.7099424534563069	-0.11899486965500804	0.3628642390942257	0.7642439836095523	
412	6.983050847457627	0.19654124848539165	0.38944514859405793	0.93415985469375	0.17307192876767766	-0.030295254001148908	0.9285761428196492	0.11441277590653631	-0.47618783715583324	0.9363653694200805	0.06878682453072406	-0.4417688938013558	0.6954879753042842	0.14195631771144146	-0.45504077339095717	0.7270168706439135	0.10242388022984424	-0.5540048341163006	0.9976780861013371	-0.031810479312424755	0.4150443768534072	0.9557115303216261	-0.06175688102032086	-0.02208629371832721	0.9387943453968522	-0.08635641656054542	-0.4348273458834341	0.922508598673201	-0.09034191346214278	-0.45802034739877107	0.7538527577772238	-0.14331145188920866	-0.46200227272586125	0.7979221281725363	-0.0737289068999312	-0.5063021616595169	0.9680301403424899	0.14202636531904295	1.018053672405867	0.9065015817089828	0.14408779344432934	1.3047155541106823	0.7512945863737953	0.12230363566389504	1.1330990039113513	0.7247217145978145	0.2936901591270603	0.9384789421271046	0.9428210714325576	0.37789335685949105	0.6351092836002801	1.036067011809135	0.360054704286337	0.4188875268791818	0.8306815026299432	0.2886598812714357	0.34464281774388605	0.7248338134493573	0.33606145740205173	0.3027338975774891	0.725431316797819	0.3645608591933044	0.2737723360560368	0.8076454158243698	-0.032845490602239416	0.9495296205032062	0.9314433086692817	-0.11943657020799939	0.671166877120666	0.9815859938811414	-0.0884262905128953	0.46357631887883166	0.8252529721497579	-0.04283997158609477	0.39611295429471893	0.730600500632043	-0.05398757698508291	0.3791298789992069	0.7147810993785461	-0.11579743298240353	0.3591429403968385	0.7716726776953795	
413	7.0	0.19688386629550045	0.3878210367157072	0.934242662680145	0.1729138095422264	-0.03137868313730957	0.9284705331174692	0.11421247674160545	-0.4762641211010962	0.9377476387345174	0.06938262756023625	-0.4415451615432924	0.6962761839566749	0.1420738046231643	-0.45529155519214354	0.7273821288744021	0.1026674792453449	-0.5532357850413322	0.997712165430792	-0.030830861336040075	0.4133914809297334	0.9559706990757906	-0.0614804479924476	-0.022577751533652102	0.9388663994579846	-0.0863405330492764	-0.43461810170712134	0.9226326159838393	-0.09059635015655057	-0.4579520850790011	0.7537710346587803	-0.14340196652222018	-0.4619055929421167	0.7979135706831649	-0.07369133947261336	-0.5051036682905747	0.9669867434805466	0.14207744978576042	1.0187410228627674	0.9061317453912835	0.14300673046229861	1.3051906944187153	0.7515097147927764	0.11954729409010473	1.13436419792272	0.726090318617033	0.2939613654538064	0.9397319342890549	0.9404943367234972	0.3788662130258617	0.6353729321165222	1.032689733856445	0.35881049118982156	0.4160542572197751	0.8291884878900915	0.2869209365782821	0.3426956907205748	0.7239271758921475	0.32855933049451946	0.29871782469951813	0.7277014311091897	0.3638459791284274	0.270946441951233	0.8078591641221472	-0.03200828321375673	0.9488870737686459	0.934431915533154	-0.1186929659113313	0.6719672337786706	0.9818072463166554	-0.08543036338934104	0.46235363385210354	0.8256481495953578	-0.04186119098231375	0.3954517733849747	0.7317651810013563	-0.05251789276488281	0.37791753379596865	0.7178432333953154	-0.1125149888714177	0.3554484052799417	0.7788313663504403	
414	7.016949152542373	0.19723739897746106	0.3861949379420497	0.9340578250538545	0.17282317444562853	-0.03254649544915472	0.928408629944983	0.11408474385474807	-0.4765730858245946	0.9394813075451741	0.06972778949135985	-0.44140211558452713	0.6969622963583577	0.14225430692644014	-0.4556246211027864	0.7279130354338387	0.10291901016951799	-0.5525097884773326	0.9977618420656622	-0.0297737489623198	0.41171960999016827	0.9559799520283463	-0.06118464046188471	-0.023044859008310603	0.9389255675243934	-0.0863153347937014	-0.4344663140093083	0.9227830881811474	-0.09077253362730586	-0.45797291380298427	0.753738552983933	-0.1435320169856442	-0.461850765673959	0.7979430464638098	-0.07356489739997218	-0.5040727149680883	0.96606835327059	0.14202718603827058	1.0192098585891833	0.9063172159452684	0.14138123196290606	1.3055123300373952	0.7523308741629612	0.11655281723243105	1.135411325461301	0.7274470828648022	0.2940600162638215	0.9413656200863301	0.9370737378511329	0.3796253871411454	0.6365905667769791	1.0267876886928406	0.3570879635664982	0.4133255304272775	0.8288394508292826	0.28532687065608237	0.3409685010525997	0.7239735530561373	0.32145865563352977	0.29480472686663195	0.7289559323285787	0.36226930282578773	0.26778756639322104	0.8088685886522438	-0.031090949727039227	0.9480811147621329	0.9382727309638415	-0.11788686391026493	0.6729054977370916	0.9818538408233528	-0.08334249264359442	0.4608745189502603	0.8270076350677591	-0.0407733523335559	0.39478021110815165	0.7333674746028758	-0.052266367523890786	0.37737357662049203	0.7195761335284598	-0.10927986994458874	0.3519878401025071	0.7857290473420078	
415	7.033898305084746	0.19761876215272753	0.38461055920106535	0.9335382874118039	0.17278755861993578	-0.033826069251369884	0.9283806597846556	0.11402934807467532	-0.4770887323582425	0.9415024826487479	0.06971106556483407	-0.4412300516465588	0.6971612950562887	0.14239112898153553	-0.4558462513071565	0.7283137060175239	0.10316321587133649	-0.5518450840170386	0.9978122522233083	-0.028681660140618192	0.4100178246728322	0.955878073032614	-0.06088066734973863	-0.023490635314221853	0.9389783338678515	-0.08628800687861493	-0.43433255819485916	0.9229442493011816	-0.09091808525663954	-0.4580952424003903	0.7537987302100013	-0.1436196733845881	-0.4619050804714868	0.7979887614129011	-0.07337481696646186	-0.5032102280106455	0.9653613174078559	0.1417067509944072	1.0194631431844976	0.9073648751759535	0.1393321642869737	1.3057282960002268	0.753737764291354	0.11372025782035355	1.1361880863021838	0.7284852853785067	0.2938765484581982	0.943061066027757	0.9327982039469611	0.3795686754024604	0.638915756320086	1.0174481686264572	0.3546478937678863	0.4107453566990799	0.8297566496482942	0.2839317540622425	0.3391100959529353	0.7252169980928367	0.31509285864853676	0.291085081404579	0.7295010400774847	0.35923150217566513	0.26433839498005046	0.8103980402439268	-0.030177111563521396	0.9470740081938918	0.9431878945802613	-0.11697010061821089	0.6736657727687896	0.9819492874575474	-0.08230764299743494	0.45935979907092067	0.8292405846146136	-0.0396888045332035	0.39433535500148464	0.7352641372265294	-0.05262014073305474	0.37686606784748855	0.7211417689940528	-0.10624989327686316	0.34878388628579365	0.7925061309020818	
